#!OML:ASF I:\golf\golf\golf 2\Subject 1\2002-09-07\Subject1.ASF
:FULLY-SPECIFIED
:DEGREES
98
root 0.585219 18.0957 -8.13436 10.6457 -7.74189 -1.82558
lowerback -4.62816 0.563879 -4.5238
upperback 0.422214 0.895441 3.72699
thorax 2.90946 0.345032 6.5018
lowerneck -14.3611 2.21928 1.51006
upperneck 42.316 6.15841 -7.42096
head 18.8536 1.67278 -2.64852
rclavicle 6.75868e-015 -7.95139e-016
rhumerus -28.1459 -2.37702 -81.7807
rradius 27.4796
rwrist -9.36144
rhand -18.655 8.64388
rfingers 7.12502
rthumb 7.63816 -21.1982
lclavicle 6.75868e-015 -7.95139e-016
lhumerus -29.9762 2.88819 85.0567
lradius 32.7512
lwrist 8.22036
lhand -8.68223 36.4268
lfingers 7.12502
lthumb 17.2523 65.6809
rfemur -15.9936 1.80498 22.3971
rtibia 27.1616
rfoot -16.2645 -5.37684
rtoes 5.62389
lfemur -13.2332 2.73332 -15.9185
ltibia 24.3357
lfoot -15.4007 1.14629
ltoes -9.24288
99
root 0.56953 18.0892 -8.12908 10.6082 -7.6988 -1.84114
lowerback -4.54702 0.591924 -4.4521
upperback 0.457465 0.927476 3.68531
thorax 2.89731 0.362085 6.41699
lowerneck -14.2956 2.1902 1.56453
upperneck 42.3337 6.07801 -7.38512
head 18.838 1.65617 -2.65764
rclavicle -1.09332e-015 -1.03368e-014
rhumerus -28.1268 -2.51628 -81.83
rradius 27.4418
rwrist -9.39842
rhand -18.8354 8.59629
rfingers 7.12502
rthumb 7.46403 -21.252
lclavicle -1.09332e-015 -1.03368e-014
lhumerus -29.9562 2.62223 85.0913
lradius 32.7274
lwrist 8.23204
lhand -8.52882 36.6476
lfingers 7.12502
lthumb 17.4 65.8888
rfemur -15.9276 1.86195 22.4718
rtibia 27.1853
rfoot -16.3012 -5.44811
rtoes 5.84781
lfemur -13.2714 2.84526 -15.8426
ltibia 24.5564
lfoot -15.4944 1.06276
ltoes -9.92682
100
root 0.551571 18.0836 -8.12376 10.5555 -7.72798 -1.86497
lowerback -4.51266 0.662176 -4.44677
upperback 0.553786 1.02037 3.6612
thorax 2.9652 0.404252 6.39527
lowerneck -14.2893 2.15706 1.64442
upperneck 42.2694 5.99968 -7.39937
head 18.7918 1.63817 -2.69063
rclavicle -2.26615e-014 -3.97569e-015
rhumerus -28.1017 -2.64158 -81.8595
rradius 27.5384
rwrist -9.54485
rhand -18.836 8.53861
rfingers 7.12502
rthumb 7.46341 -21.3097
lclavicle -2.26615e-014 -3.97569e-015
lhumerus -29.7956 2.46492 85.1464
lradius 32.66
lwrist 8.10908
lhand -8.35101 37.2143
lfingers 7.12502
lthumb 17.5711 66.4403
rfemur -15.8575 1.99462 22.5582
rtibia 27.2277
rfoot -16.292 -5.60783
rtoes 5.12636
lfemur -13.2784 2.98006 -15.7539
ltibia 24.8005
lfoot -15.622 0.979711
ltoes -10.183
101
root 0.534682 18.0792 -8.11762 10.5654 -7.76227 -1.89013
lowerback -4.54628 0.684991 -4.49591
upperback 0.65547 1.05276 3.70758
thorax 3.08378 0.412698 6.4778
lowerneck -14.3364 2.19249 1.76722
upperneck 42.1358 6.07828 -7.57222
head 18.7447 1.66798 -2.77461
rclavicle 1.17283e-014 5.48646e-014
rhumerus -28.0232 -2.61969 -81.8244
rradius 27.6071
rwrist -9.55958
rhand -18.6955 8.60484
rfingers 7.12502
rthumb 7.59903 -21.2386
lclavicle 1.17283e-014 5.48646e-014
lhumerus -29.6918 2.34066 85.3083
lradius 32.7063
lwrist 8.09883
lhand -8.4909 37.1825
lfingers 7.12502
lthumb 17.4364 66.4204
rfemur -15.846 2.09508 22.6372
rtibia 27.2544
rfoot -16.2805 -5.6708
rtoes 4.88573
lfemur -13.3926 3.21499 -15.6752
ltibia 25.0899
lfoot -15.7158 0.818041
ltoes -10.5975
102
root 0.519165 18.0775 -8.11163 10.6197 -7.75769 -1.90213
lowerback -4.42985 0.677115 -4.48089
upperback 0.612041 1.03733 3.7293
thorax 2.97506 0.409763 6.4875
lowerneck -14.3007 2.22399 1.79867
upperneck 42.15 6.14067 -7.62535
head 18.7545 1.69159 -2.79514
rclavicle -7.55382e-015 7.95139e-016
rhumerus -28.073 -2.5835 -81.8113
rradius 27.5765
rwrist -9.44098
rhand -18.5773 8.66767
rfingers 7.12502
rthumb 7.71317 -21.1717
lclavicle -7.55382e-015 7.95139e-016
lhumerus -29.8881 1.99834 85.4675
lradius 32.9224
lwrist 8.31974
lhand -8.71962 36.9771
lfingers 7.12502
lthumb 17.2163 66.2344
rfemur -15.8964 2.04777 22.7038
rtibia 27.2866
rfoot -16.3206 -5.57932
rtoes 5.23771
lfemur -13.5898 3.48642 -15.6184
ltibia 25.3915
lfoot -15.694 0.564182
ltoes -11.1362
103
root 0.503392 18.0768 -8.10518 10.6216 -7.80986 -1.96384
lowerback -4.24516 0.716296 -4.37041
upperback 0.582542 1.0786 3.7201
thorax 2.83621 0.437667 6.41145
lowerneck -14.3268 2.20523 1.71142
upperneck 42.314 6.09905 -7.49434
head 18.8493 1.67545 -2.73257
rclavicle 3.37934e-015 -6.36111e-015
rhumerus -28.0806 -2.61393 -81.8135
rradius 27.4927
rwrist -9.35985
rhand -18.4898 8.67581
rfingers 7.12502
rthumb 7.79759 -21.1604
lclavicle 3.37934e-015 -6.36111e-015
lhumerus -30.0377 1.6796 85.5508
lradius 33.0773
lwrist 8.50324
lhand -8.73833 37.1052
lfingers 7.12502
lthumb 17.1983 66.3641
rfemur -15.9088 2.04372 22.8188
rtibia 27.3615
rfoot -16.3755 -5.53049
rtoes 5.1624
lfemur -13.7119 3.561 -15.5118
ltibia 25.6773
lfoot -15.6441 0.482553
ltoes -10.7269
104
root 0.48742 18.0711 -8.09914 10.5864 -7.88627 -2.00367
lowerback -4.16812 0.754573 -4.30087
upperback 0.666899 1.1234 3.7168
thorax 2.87527 0.45789 6.37027
lowerneck -14.4331 2.23528 1.73484
upperneck 42.3983 6.14862 -7.49517
head 18.939 1.69574 -2.73243
rclavicle 1.8487e-014 -1.27222e-014
rhumerus -27.908 -2.55187 -81.8353
rradius 27.3789
rwrist -9.36666
rhand -18.499 8.69705
rfingers 7.12502
rthumb 7.78874 -21.1395
lclavicle 1.8487e-014 -1.27222e-014
lhumerus -29.9278 1.78981 85.5257
lradius 32.986
lwrist 8.22215
lhand -8.58437 37.0554
lfingers 7.12502
lthumb 17.3465 66.3013
rfemur -15.8917 2.13125 22.9023
rtibia 27.4668
rfoot -16.418 -5.55127
rtoes 5.05387
lfemur -13.795 3.57778 -15.4344
ltibia 25.9528
lfoot -15.6456 0.536187
ltoes -10.0191
105
root 0.47202 18.0619 -8.09522 10.5589 -7.90003 -1.96602
lowerback -4.18358 0.750396 -4.32572
upperback 0.79859 1.11831 3.72886
thorax 3.02101 0.44678 6.40009
lowerneck -14.5676 2.29097 1.70138
upperneck 42.4091 6.27256 -7.53875
head 18.9983 1.73082 -2.72374
rclavicle -1.09332e-014 1.43125e-014
rhumerus -27.7026 -2.44088 -81.8454
rradius 27.3435
rwrist -9.37201
rhand -18.4992 8.75596
rfingers 7.12502
rthumb 7.7885 -21.0806
lclavicle -1.09332e-014 1.43125e-014
lhumerus -29.7418 2.06369 85.5119
lradius 32.8824
lwrist 7.71174
lhand -8.45565 37.0841
lfingers 7.12502
lthumb 17.4704 66.3191
rfemur -15.8849 2.16955 22.9102
rtibia 27.5542
rfoot -16.3913 -5.70006
rtoes 3.30378
lfemur -13.9011 3.6778 -15.4437
ltibia 26.2418
lfoot -15.6006 0.60136
ltoes -10.2177
106
root 0.454871 18.0549 -8.0924 10.5517 -7.87603 -2.06125
lowerback -4.14408 0.751914 -4.20479
upperback 0.864997 1.11148 3.75207
thorax 3.07033 0.442073 6.35499
lowerneck -14.4643 2.27764 1.67655
upperneck 42.3184 6.27161 -7.5897
head 18.9137 1.72307 -2.73919
rclavicle -2.5842e-015 -2.22639e-014
rhumerus -27.6912 -2.42306 -81.8782
rradius 27.4253
rwrist -9.36488
rhand -18.4208 8.80396
rfingers 7.12502
rthumb 7.86421 -21.0298
lclavicle -2.5842e-015 -2.22639e-014
lhumerus -29.7667 1.83078 85.6021
lradius 33.0731
lwrist 7.81183
lhand -8.52662 37.2564
lfingers 7.12502
lthumb 17.4021 66.4974
rfemur -15.8589 2.22303 23.0785
rtibia 27.6043
rfoot -16.3495 -5.88049
rtoes 1.39383
lfemur -14.0411 3.80888 -15.3049
ltibia 26.5676
lfoot -15.5288 0.808042
ltoes -12.5562
107
root 0.436728 18.0545 -8.08541 10.503 -7.91496 -2.17811
lowerback -3.99795 0.775984 -4.07237
upperback 0.875508 1.13175 3.78168
thorax 2.99762 0.456386 6.30785
lowerneck -14.233 2.25188 1.68123
upperneck 42.2319 6.23688 -7.63953
head 18.7936 1.70968 -2.76643
rclavicle 6.06293e-015 1.59028e-015
rhumerus -27.7683 -2.26996 -81.9272
rradius 27.448
rwrist -9.46672
rhand -18.4406 8.90503
rfingers 7.12502
rthumb 7.84508 -20.9294
lclavicle 6.06293e-015 1.59028e-015
lhumerus -29.9242 1.4345 85.7509
lradius 33.3151
lwrist 8.16865
lhand -8.7401 37.0911
lfingers 7.12502
lthumb 17.1966 66.3501
rfemur -15.7514 2.35429 23.2586
rtibia 27.6247
rfoot -16.386 -5.82857
rtoes 2.50908
lfemur -14.1548 4.04106 -15.1685
ltibia 26.9243
lfoot -15.5046 1.05416
ltoes -15.4918
108
root 0.420276 18.0576 -8.07596 10.4506 -7.90301 -2.17201
lowerback -3.83487 0.777339 -4.0566
upperback 0.880209 1.1279 3.80227
thorax 2.91095 0.457145 6.3163
lowerneck -14.2327 2.26706 1.57267
upperneck 42.305 6.27403 -7.56652
head 18.8342 1.7156 -2.70751
rclavicle 5.26779e-015 -1.59028e-014
rhumerus -27.7942 -2.06245 -81.94
rradius 27.4224
rwrist -9.50885
rhand -18.5283 8.93232
rfingers 7.12502
rthumb 7.76048 -20.9053
lclavicle 5.26779e-015 -1.59028e-014
lhumerus -30.054 1.38412 85.839
lradius 33.4423
lwrist 8.03543
lhand -8.74415 36.7449
lfingers 7.12502
lthumb 17.1927 66.0043
rfemur -15.6306 2.42623 23.3094
rtibia 27.6006
rfoot -16.4133 -5.68648
rtoes 4.96769
lfemur -14.2987 4.20064 -15.1543
ltibia 27.3285
lfoot -15.4788 1.07826
ltoes -16.206
109
root 0.402486 18.0562 -8.06751 10.4135 -7.85256 -2.10886
lowerback -3.61486 0.790918 -4.04585
upperback 0.847467 1.1419 3.7432
thorax 2.75216 0.47062 6.242
lowerneck -14.2822 2.27709 1.58
upperneck 42.4252 6.26828 -7.49194
head 18.919 1.72198 -2.68018
rclavicle -2.67365e-014 5.56597e-015
rhumerus -27.886 -2.09902 -82.0038
rradius 27.4618
rwrist -9.40726
rhand -18.4381 8.78488
rfingers 7.12502
rthumb 7.84746 -21.0495
lclavicle -2.67365e-014 5.56597e-015
lhumerus -30.2234 1.27063 85.8334
lradius 33.575
lwrist 7.77567
lhand -8.6419 36.4431
lfingers 7.12502
lthumb 17.2911 65.6939
rfemur -15.5375 2.40384 23.3126
rtibia 27.5566
rfoot -16.4243 -5.60587
rtoes 6.14216
lfemur -14.4682 4.23896 -15.167
ltibia 27.7862
lfoot -15.4262 0.921257
ltoes -14.9933
110
root 0.382776 18.0536 -8.0594 10.3809 -7.9252 -2.04852
lowerback -3.76323 0.808397 -4.23457
upperback 1.05652 1.17455 3.81961
thorax 3.04396 0.468536 6.44162
lowerneck -14.3987 2.28429 1.54087
upperneck 42.3745 6.34188 -7.6066
head 18.9341 1.72853 -2.71159
rclavicle 1.18277e-014 1.19271e-014
rhumerus -27.594 -1.88056 -81.9352
rradius 27.5011
rwrist -9.47223
rhand -18.3715 8.72455
rfingers 7.12502
rthumb 7.9118 -21.1074
lclavicle 1.18277e-014 1.19271e-014
lhumerus -29.9623 1.20342 86.0563
lradius 33.6147
lwrist 7.61391
lhand -8.71422 36.4547
lfingers 7.12502
lthumb 17.2215 65.7116
rfemur -15.4688 2.36872 23.3015
rtibia 27.5333
rfoot -16.396 -5.6038
rtoes 4.80548
lfemur -14.6345 4.34568 -15.1984
ltibia 28.2824
lfoot -15.409 0.852277
ltoes -14.0446
111
root 0.366539 18.0517 -8.05381 10.369 -7.96683 -2.11568
lowerback -3.69089 0.801346 -4.16458
upperback 1.09847 1.15749 3.87696
thorax 3.04934 0.459493 6.46025
lowerneck -14.3221 2.33476 1.51703
upperneck 42.393 6.44824 -7.65018
head 18.9369 1.76257 -2.70896
rclavicle 8.24956e-015 7.95139e-016
rhumerus -27.5303 -1.60108 -81.9453
rradius 27.4898
rwrist -9.55022
rhand -18.4878 8.87496
rfingers 7.12502
rthumb 7.79957 -20.9612
lclavicle 8.24956e-015 7.95139e-016
lhumerus -29.9734 1.08516 86.1683
lradius 33.7341
lwrist 7.51481
lhand -8.74477 36.6083
lfingers 7.12502
lthumb 17.1921 65.8678
rfemur -15.4113 2.35879 23.4251
rtibia 27.5316
rfoot -16.3797 -5.63725
rtoes 3.44217
lfemur -14.8637 4.50408 -15.1073
ltibia 28.8293
lfoot -15.4246 0.886755
ltoes -14.4454
